<svg xmlns="http://www.w3.org/2000/svg" width="800" height="800" preserveAspectRatio="xMidYMid meet" version="1.0" viewBox="0 0 600 600"><metadata>Created by potrace 1.14, written by Peter Selinger 2001-2017</metadata><g fill="#000" stroke="none"><path d="M1780 5224 c-1180 -682 -1217 -703 -1268 -703 -38 -1 -57 -6 -72 -21 -20 -20 -20 -33 -20 -704 0 -668 0 -684 20 -709 20 -25 20 -40 20 -790 l0 -765 620 -358 c534 -308 620 -360 620 -380 0 -13 10 -34 23 -48 32 -36 1237 -738 1267 -739 23 0 2470 1392 2548 1450 l32 24 0 1503 c0 1443 -1 1504 -18 1519 -12 11 -36 17 -68 17 -48 0 -100 29 -1230 681 -648 374 -1197 691 -1219 703 l-40 23 -1215 -703z" transform="translate(0.000000,600.000000) scale(0.100000,-0.100000)"/></g></svg>